<?xml version="1.0" standalone="no"?>
<!DOCTYPE svg PUBLIC "-//W3C//DTD SVG 20010904//EN"
 "http://www.w3.org/TR/2001/REC-SVG-20010904/DTD/svg10.dtd">
<svg version="1.0" xmlns="http://www.w3.org/2000/svg"
 width="200.000000pt" height="200.000000pt" viewBox="0 0 200.000000 200.000000"
 preserveAspectRatio="xMidYMid meet">
<metadata>
Created by potrace 1.16, written by Peter Selinger 2001-2019
</metadata>
<g transform="translate(0.000000,200.000000) scale(0.100000,-0.100000)"
fill="#000000" stroke="none">
<path d="M1010 1959 c-30 -5 -77 -9 -104 -10 -34 -1 -67 -11 -112 -34 -57 -30
-70 -33 -121 -28 -44 5 -58 3 -68 -10 -6 -8 -27 -19 -46 -24 -22 -6 -35 -16
-37 -29 -1 -10 -23 -41 -47 -68 -25 -26 -42 -53 -39 -58 3 -5 -3 -19 -14 -31
-40 -44 -86 -157 -64 -157 6 0 14 5 17 10 12 19 21 10 31 -30 9 -32 8 -44 -3
-60 -32 -46 22 -109 113 -131 27 -7 69 -22 94 -34 25 -13 64 -29 88 -36 23 -7
39 -15 35 -19 -4 -3 -71 -3 -148 0 -77 3 -159 3 -182 -2 -60 -10 -368 -197
-368 -223 0 -30 85 -88 234 -161 l135 -66 91 1 c50 1 107 6 126 11 18 6 35 10
35 10 1 0 -13 -41 -32 -90 -42 -112 -43 -128 -4 -143 17 -6 30 -16 30 -22 0
-21 -23 -92 -47 -148 -22 -48 -33 -60 -67 -76 -64 -29 -121 -75 -139 -114 -24
-49 -22 -112 4 -138 20 -20 27 -20 307 -15 158 3 298 4 312 4 14 -1 145 -1
293 0 293 1 319 5 325 54 9 79 -46 157 -145 203 -48 23 -56 32 -79 83 -14 31
-30 76 -36 101 -10 40 -9 46 7 55 60 36 60 35 27 107 -26 56 -37 103 -33 131
1 4 16 2 34 -3 52 -15 215 -13 240 4 18 11 33 12 92 1 113 -20 160 -18 192 10
l28 24 0 157 0 157 -28 24 c-34 29 -87 31 -298 9 -79 -8 -178 -16 -219 -17
-73 -3 -76 -2 -123 35 -30 23 -43 39 -35 42 7 2 33 9 58 15 25 7 64 22 86 35
23 12 63 26 89 29 63 10 125 64 125 110 -1 17 -7 42 -14 56 -12 21 -12 30 0
58 13 31 12 39 -10 93 -13 32 -19 60 -14 61 5 2 -11 30 -36 62 -25 32 -42 64
-39 72 4 10 -13 22 -56 41 -51 22 -58 28 -45 38 26 19 -30 37 -128 43 -49 2
-88 8 -88 13 0 5 -13 9 -30 9 -16 0 -30 5 -30 10 0 12 -42 11 -120 -1z m60
-18 c0 -9 64 -19 200 -29 74 -6 85 -9 85 -26 0 -13 17 -25 63 -43 46 -19 62
-30 62 -45 0 -11 13 -38 29 -61 16 -24 41 -71 55 -105 24 -56 25 -67 15 -101
-17 -56 -61 -62 -164 -21 -95 38 -115 39 -115 4 0 -21 -3 -25 -17 -19 -10 4
-31 10 -47 13 -26 4 -28 3 -24 -21 l5 -25 -56 36 c-31 19 -66 44 -78 55 -29
26 -59 17 -43 -14 11 -19 10 -20 -9 -10 -27 15 -141 110 -163 136 -9 11 -27
37 -40 57 -23 37 -48 50 -48 25 0 -7 -11 -28 -25 -47 -36 -48 -158 -155 -163
-141 -7 21 -25 11 -85 -46 -56 -54 -60 -56 -73 -38 -8 10 -14 34 -14 52 0 23
-5 33 -15 33 -8 0 -15 2 -15 5 0 13 35 72 61 104 15 19 26 38 23 43 -3 5 13
29 35 53 23 25 41 51 41 60 0 11 10 15 35 15 22 0 38 6 41 15 7 17 74 21 90 5
7 -7 18 -5 35 8 38 30 109 64 109 52 0 -7 8 -9 20 -5 34 11 144 33 168 34 12
1 22 -3 22 -8z m-249 -243 c18 -34 107 -125 160 -164 53 -39 107 -48 89 -15
-18 34 -11 33 38 -7 58 -49 129 -86 137 -72 4 6 3 20 -1 32 -5 18 -3 20 12 13
37 -15 59 -11 62 13 2 12 7 22 11 22 4 0 47 -14 95 -30 57 -20 96 -28 112 -24
24 6 26 5 19 -17 -31 -100 -134 -176 -292 -216 -52 -13 -111 -17 -258 -17
-210 0 -302 17 -394 71 -61 36 -127 98 -139 131 -8 24 -4 32 39 73 26 26 50
42 52 35 7 -21 60 17 147 105 47 48 88 87 92 88 4 0 13 -9 19 -21z m779 -290
c0 -25 -43 -71 -79 -85 l-32 -12 33 37 c19 21 40 52 47 70 10 24 16 30 22 20
5 -7 9 -21 9 -30z m-1107 -55 c35 -38 21 -43 -29 -12 -35 21 -51 56 -39 86 5
15 9 13 22 -12 8 -16 29 -45 46 -62z m300 -150 c-7 -2 -19 -2 -25 0 -7 3 -2 5
12 5 14 0 19 -2 13 -5z m391 -25 c2 -10 -1 -18 -7 -18 -26 0 -330 30 -332 32
-2 2 73 3 165 3 153 0 169 -2 174 -17z m75 8 c15 -8 33 -22 40 -30 12 -14 9
-15 -20 -10 -49 8 -63 14 -56 21 4 3 2 12 -4 20 -15 18 3 17 40 -1z m-409 -20
c118 -8 288 -22 378 -32 l163 -17 -3 -36 -3 -36 -479 2 c-448 2 -481 3 -504
20 -34 25 -45 58 -27 77 8 8 15 19 15 25 0 15 197 14 460 -3z m-477 -102 l24
-20 -29 -17 c-37 -21 -45 -43 -23 -67 16 -17 16 -21 1 -42 -9 -12 -16 -39 -16
-60 0 -21 -2 -38 -5 -38 -10 0 -88 42 -127 68 -38 24 -38 25 -38 92 0 42 5 71
13 78 6 5 46 28 87 51 l75 40 7 -32 c3 -17 17 -41 31 -53z m1544 60 c9 -13 13
-61 13 -166 l0 -149 -37 -16 c-36 -15 -73 -14 -171 4 -30 5 -33 8 -27 33 8 35
-16 95 -44 110 -19 10 -21 20 -21 105 l0 94 98 4 c136 5 174 1 189 -19z m-307
-79 c0 -47 -4 -85 -9 -85 -35 0 -41 13 -41 91 0 78 0 79 25 79 25 0 25 -1 25
-85z m-70 0 l0 -75 -30 0 -30 0 0 75 0 75 30 0 30 0 0 -75z m-80 -9 c0 -76 -6
-86 -47 -86 -12 0 -13 10 -7 58 4 31 8 64 10 72 1 8 3 18 3 23 1 4 10 7 21 7
18 0 20 -7 20 -74z m-1324 -53 c-3 -34 -8 -47 -18 -45 -21 5 -58 32 -58 41 0
9 59 51 73 51 4 0 6 -21 3 -47z m852 37 l392 0 0 -41 0 -41 -302 6 c-167 4
-395 9 -507 11 -112 2 -208 8 -213 13 -5 5 -6 16 -3 24 12 30 47 38 145 33 52
-3 272 -5 488 -5z m641 -98 c32 -23 38 -69 16 -113 l-17 -32 -111 7 c-117 8
-157 21 -157 55 0 26 61 90 96 101 45 15 143 5 173 -18z m-1014 -6 c13 -13 27
-40 31 -61 10 -56 -5 -65 -128 -72 -98 -5 -107 -4 -126 15 -27 27 -39 87 -21
108 21 26 49 33 137 33 75 1 85 -1 107 -23z m726 -13 c1 -18 -1 -46 -4 -50 -1
0 -112 -6 -247 -12 -135 -6 -282 -13 -327 -15 -79 -4 -83 -3 -83 18 0 11 -7
33 -14 49 l-15 27 345 0 c320 0 344 -1 345 -17z m-2 -113 c-55 -29 -460 -48
-582 -27 -87 15 -38 27 116 28 84 1 222 4 307 8 156 6 184 4 159 -9z m-602
-44 c-4 -13 -54 -32 -63 -24 -3 4 -3 15 0 25 5 15 13 18 37 15 16 -2 28 -9 26
-16z m613 10 c0 -8 3 -22 7 -31 5 -14 2 -16 -18 -10 -13 4 -35 14 -49 23 -23
15 -23 16 -5 23 33 13 65 10 65 -5z m-79 -21 c16 -13 45 -27 63 -30 30 -6 35
-11 49 -63 8 -31 14 -59 11 -63 -2 -4 -25 -14 -51 -23 -48 -16 -219 -22 -282
-10 -30 6 -31 8 -31 61 0 46 -3 54 -17 51 -14 -2 -19 -16 -23 -58 -5 -54 -5
-54 -45 -63 -84 -18 -321 10 -332 39 -3 8 5 39 18 68 20 44 29 55 53 60 17 4
41 14 55 23 22 14 52 17 201 15 139 -1 269 6 299 17 2 0 16 -10 32 -24z m-393
-223 l112 3 0 -122 c0 -68 -3 -123 -7 -123 -3 0 -14 6 -22 14 -9 7 -38 21 -66
31 -62 23 -61 21 -44 41 11 14 11 18 -6 30 -16 12 -22 12 -42 -1 -21 -14 -26
-14 -45 0 -45 31 -90 7 -48 -25 24 -18 24 -18 -33 -21 -62 -4 -64 -2 -32 61 7
14 16 44 20 65 11 66 9 64 57 53 24 -5 94 -8 156 -6z m473 -47 c6 -27 20 -67
30 -87 11 -21 19 -39 19 -40 0 -2 -22 -1 -50 0 -54 4 -59 8 -33 27 38 28 -15
47 -54 20 -14 -10 -24 -12 -28 -5 -3 5 -20 10 -36 10 -27 0 -30 -3 -27 -26 3
-23 -3 -28 -56 -50 -32 -13 -65 -29 -72 -35 -12 -10 -14 8 -14 112 l0 124 155
0 154 0 12 -50z m-610 -85 c28 -16 23 -32 -6 -18 -14 6 -25 15 -25 20 0 11 7
10 31 -2z m569 2 c0 -5 -11 -14 -25 -20 -16 -7 -25 -8 -25 -1 0 5 10 14 23 19
29 11 27 11 27 2z m-470 -12 c0 -11 -42 -31 -49 -24 -2 2 2 10 9 19 14 17 40
20 40 5z m388 -12 c3 -15 -1 -16 -19 -9 -32 11 -38 34 -8 29 13 -1 25 -11 27
-20z m-357 -52 c83 -35 120 -94 104 -166 -11 -49 -44 -55 -287 -52 -218 2
-263 9 -274 37 -26 66 101 171 235 196 63 11 179 4 222 -15z m490 14 c109 -21
231 -98 245 -155 9 -35 -12 -63 -49 -69 -71 -11 -366 -15 -427 -6 -74 10 -90
25 -90 81 0 52 17 86 57 111 74 45 160 58 264 38z m-361 -230 c0 -38 -39 -43
-314 -35 -142 4 -265 9 -272 12 -28 10 -13 22 19 15 17 -3 141 -7 274 -7 218
0 244 2 260 18 23 22 33 22 33 -3z m345 -18 c150 3 239 9 253 17 18 10 22 9
22 -3 0 -7 -6 -16 -14 -19 -24 -9 -480 -20 -529 -13 -36 6 -47 11 -47 25 0 18
3 18 43 4 34 -12 85 -14 272 -11z"/>
<path d="M588 1455 c-3 -4 0 -18 8 -33 8 -15 14 -32 14 -38 0 -7 18 -28 39
-47 61 -55 147 -78 317 -84 158 -6 272 10 353 52 53 27 70 44 98 102 17 35 18
43 6 48 -26 9 -30 6 -30 -25 0 -64 -69 -118 -185 -145 -77 -17 -297 -20 -379
-5 -113 21 -215 97 -207 154 3 20 -21 34 -34 21z"/>
<path d="M943 1423 c-7 -3 -13 -11 -13 -20 0 -17 41 -14 47 3 4 13 -16 23 -34
17z"/>
<path d="M1051 1416 c-13 -15 -5 -26 20 -26 26 0 32 17 10 29 -14 8 -22 7 -30
-3z"/>
<path d="M955 1360 c3 -5 28 -10 56 -10 27 0 49 5 49 10 0 6 -25 10 -56 10
-34 0 -53 -4 -49 -10z"/>
<path d="M701 306 c10 -8 119 -14 119 -5 0 5 -28 9 -62 9 -34 0 -59 -2 -57 -4z"/>
<path d="M695 270 c3 -5 34 -10 68 -9 46 1 56 3 37 9 -37 12 -112 12 -105 0z"/>
<path d="M1206 302 c5 -5 36 -6 69 -2 l60 7 -69 2 c-39 0 -66 -3 -60 -7z"/>
<path d="M1220 270 c-18 -6 -7 -8 43 -9 38 -1 67 3 67 9 0 12 -74 12 -110 0z"/>
</g>
</svg>
